<svg xmlns="http://www.w3.org/2000/svg" fill="none" viewBox="0 0 284 284">
  <path fill="#000" fill-rule="evenodd" d="M142 284a142 142 0 1 0 0-284 142 142 0 0 0 0 284Zm0-100a42 42 0 1 0 0-84 42 42 0 0 0 0 84Z" clip-rule="evenodd"/>
  <path fill="#EC0000" d="M282 142a140 140 0 0 1-26.7 82.3L177 167.5a43.4 43.4 0 0 0 8.3-25.5H282Z"/>
  <path fill="#000" fill-rule="evenodd" d="M254.8 221.5A138 138 0 0 0 280 144h-92.6c-.4 8.2-3 16.2-7.5 23l75 54.5Zm1.6 1.2-1.1 1.6-78.2-56.8a43.4 43.4 0 0 0 8.3-25.5H282v2a140 140 0 0 1-25.6 78.7Z" clip-rule="evenodd"/>
  <path fill="#FF881A" d="M255.3 224.3a140 140 0 0 1-70 50.8l-29.9-91.8a43.4 43.4 0 0 0 21.7-15.8l78.2 56.8Z"/>
  <path fill="#000" fill-rule="evenodd" d="M255.3 224.3a138.7 138.7 0 0 1-70 50.8l-29.9-91.8a43.4 43.4 0 0 0 21.7-15.8l78.2 56.8Zm-77.8-54 75 54.4a138 138 0 0 1-66 48L158 184.4a45.4 45.4 0 0 0 19.6-14.2Z" clip-rule="evenodd"/>
  <path fill="#FFD91A" d="M185.3 275.1a140 140 0 0 1-86.6 0l29.9-91.8a43.4 43.4 0 0 0 26.8 0l29.9 91.8Z"/>
  <path fill="#000" fill-rule="evenodd" d="m185.3 275.1-2 .7a140 140 0 0 1-84.6-.7l29.9-91.8c8.7 2.8 18 2.8 26.8 0l29.9 91.8ZM154 185.8c-8 2.1-16.3 2.1-24.2 0l-28.6 88a138 138 0 0 0 81.4 0l-28.6-88Z" clip-rule="evenodd"/>
  <path fill="#A7FF1A" d="M98.7 275.1a140 140 0 0 1-70-50.8l78.2-56.8c5.4 7.4 13 13 21.7 15.8L98.7 275Z"/>
  <path fill="#000" fill-rule="evenodd" d="m98.7 275.1-1.9-.6a140 140 0 0 1-68-50.2l78-56.8a43.4 43.4 0 0 0 21.8 15.8L98.7 275Zm27.4-90.6-28.6 88.1a138 138 0 0 1-66-47.9l75-54.4a45.4 45.4 0 0 0 19.6 14.2Z" clip-rule="evenodd"/>
  <path fill="#1AFF1A" d="M28.7 224.3A140 140 0 0 1 2 142h96.6c0 9.2 2.9 18 8.3 25.5l-78.2 56.8Z"/>
  <path fill="#000" fill-rule="evenodd" d="m28.7 224.3-1.1-1.6A140 140 0 0 1 2 142h96.6c0 9.2 2.9 18 8.3 25.5l-78.2 56.8Zm75.4-57.3a45.4 45.4 0 0 1-7.5-23H4a138 138 0 0 0 25.2 77.5l75-54.5Z" clip-rule="evenodd"/>
  <path fill="#1AFFEC" d="M2 142a140 140 0 0 1 26.7-82.3l78.2 56.8a43.4 43.4 0 0 0-8.3 25.5H2Z"/>
  <path fill="#000" fill-rule="evenodd" d="M29.2 62.5A138 138 0 0 0 4 140h92.6c.4-8.2 3-16.2 7.5-23l-75-54.5Zm-1.6-1.2A140 140 0 0 0 2 142h96.6c0-9.2 2.9-18 8.3-25.5L28.7 59.7l-1.1 1.6Z" clip-rule="evenodd"/>
  <path fill="#1ABEFF" d="M28.7 59.7A140 140 0 0 1 98.7 9l29.9 91.8a43.4 43.4 0 0 0-21.7 15.8L28.7 59.7Z"/>
  <path fill="#000" fill-rule="evenodd" d="M28.7 59.7a141 141 0 0 1 70-50.8l29.9 91.8a43.4 43.4 0 0 0-21.7 15.8L28.7 59.7Zm77.8 54A45.4 45.4 0 0 1 126 99.5L97.5 11.4a138 138 0 0 0-66 47.9l75 54.4Z" clip-rule="evenodd"/>
  <path fill="#1A85FF" d="M98.7 8.9a140 140 0 0 1 86.6 0l-29.9 91.8a43.4 43.4 0 0 0-26.8 0L98.7 9Z"/>
  <path fill="#000" fill-rule="evenodd" d="m98.7 8.9 2-.7a140 140 0 0 1 84.6.7l-29.9 91.8a43.4 43.4 0 0 0-26.8 0L98.7 9ZM130 98.2c8-2.1 16.3-2.1 24.2 0l28.6-88a138 138 0 0 0-81.4 0l28.6 88Z" clip-rule="evenodd"/>
  <path fill="#1A3CFF" d="M185.3 8.9a140 140 0 0 1 70 50.8L177 116.5c-5.4-7.4-13-13-21.7-15.8L185.3 9Z"/>
  <path fill="#000" fill-rule="evenodd" d="M185.3 8.9a138.9 138.9 0 0 1 70 50.8L177 116.5c-5.4-7.4-13-13-21.7-15.8L185.3 9Zm-27.4 90.6a45.4 45.4 0 0 1 19.6 14.2l75-54.4a138 138 0 0 0-66-48L158 99.6Z" clip-rule="evenodd"/>
  <path fill="#901AFF" d="M255.3 59.7A140 140 0 0 1 282 142h-96.6c0-9.2-2.9-18-8.3-25.5l78.2-56.8Z"/>
  <path fill="#000" fill-rule="evenodd" d="m255.3 59.7 1.1 1.6A140 140 0 0 1 282 142h-96.6c0-9.2-2.9-18-8.3-25.5l78.2-56.8ZM179.9 117a45.4 45.4 0 0 1 7.5 23H280a138 138 0 0 0-25.2-77.5l-75 54.5Z" clip-rule="evenodd"/>
</svg>
