<svg xmlns="http://www.w3.org/2000/svg" width="64" height="64" fill="none">
  <style>
    path {
      fill: black;
    }
    
    @media (prefers-color-scheme: dark) {
      path {
        fill: white;
      }
    }
  </style>
  <mask id="a" width="56" height="56" x="4" y="4" maskUnits="userSpaceOnUse" style="mask-type:alpha">
    <circle cx="32" cy="32" r="27.5" fill="#D9D9D9" stroke="#000"/>
  </mask>
  <g mask="url(#a)">
    <path fill="#000" fill-rule="evenodd" d="M7.984 17.595C12.881 9.45 21.804 4 32 4c4.963 0 9.624 1.291 13.666 3.556 2.748-1.194 4.779-1.705 4.779-1.705l26.149 18.444L58.819 50.32c.62 1.785.894 2.959.894 2.959L41.195 79.375-11 42.338 7.518 16.241s.15.507.466 1.354ZM52.907 45.17C48.531 52.101 40.803 56.706 32 56.706 18.355 56.706 7.294 45.645 7.294 32c0-2.248.3-4.426.863-6.496a34.79 34.79 0 0 0 2.785 3.99c2.337 2.879 5.484 5.703 9.58 7.314 4.165 1.637 9.06 1.92 14.63.08 4.136-1.365 7.31-.963 9.821.195 2.603 1.2 4.78 3.347 6.559 5.902.499.716.956 1.45 1.375 2.184Zm1.834-3.497a25.82 25.82 0 0 0-2.631-3.359c-2.094-2.239-4.755-4.155-8.108-5.09-2.438-.681-5.101-.804-7.989-.286-.124-.342-.237-.642-.34-.92-.201-.534-.37-.983-.525-1.486-1.282-4.168-.892-7.394.222-9.948 1.146-2.627 3.177-4.804 5.564-6.574 1.489-1.104 3.06-2.007 4.527-2.73C52.23 15.688 56.706 23.322 56.706 32c0 3.432-.7 6.701-1.965 9.672Zm-.15 6.873C49.496 55.49 41.275 60 32 60 16.536 60 4 47.464 4 32c0-2.068.224-4.084.65-6.024L-6.408 41.558l46.822 33.224 15.703-22.13a39.747 39.747 0 0 0-1.526-4.107ZM9.666 21.424c3.259 6.45 10.471 16.212 23.271 12.694l-.127-.346-.006-.016-.001-.005-.166-.445A32.953 32.953 0 0 1 32 31.5c-3.556-11.558 3.584-18.426 9.99-22.103A24.62 24.62 0 0 0 32 7.294c-9.86 0-18.372 5.777-22.334 14.13Zm39.352-11.66c.306-.112.588-.21.841-.295l22.185 15.648L57.43 46.51c-.217-.461-.445-.927-.686-1.396A27.877 27.877 0 0 0 60 32c0-9.062-4.305-17.12-10.982-22.237Z" clip-rule="evenodd"/>
  </g>
</svg>